<svg width="900" height="829" viewBox="0 0 900 829" fill="none" xmlns="http://www.w3.org/2000/svg">
<path d="M561.856 -242.896L575.839 -267.531L561.712 -275.711L547.681 -267.531L561.856 -242.896ZM561.856 -242.896V-242.752M561.904 881.757L573.057 862.783L592.508 873.89V851.461H615.077L603.996 832.007L623.184 820.781L603.996 809.531L615.077 790.101H592.652V767.697L573.2 778.779L561.952 759.589L550.703 778.779L531.276 767.721V790.125H508.875L519.979 809.579L500.672 820.805L519.979 832.055L508.875 851.485H531.3V873.89L550.751 862.783L561.904 881.757ZM561.904 881.757V882.093V881.925M561.544 -64.0933V-63.7334L550.391 -44.8553L530.94 -55.9135V-33.4852L508.323 -33.3653L519.428 -13.9115L500.24 -2.68529L519.428 8.56484L508.323 27.9947H530.748V50.423L550.2 39.3168L561.424 58.5069L572.673 39.3168L592.124 50.423V27.9947H614.549L603.469 8.54083L622.656 -2.68529L603.469 -13.9354L614.549 -33.3893H592.148V-55.8176L572.697 -44.7354L561.544 -63.6375V-64.0933ZM561.544 -64.0933V-63.9253M561.736 730.9L575.791 706.289L561.736 698.109L547.705 706.289L561.736 730.9ZM561.736 730.9V731.068M561.904 347.748L550.727 366.938L531.324 355.832L531.204 378.236H508.827L519.907 397.642L500.72 408.868L519.907 420.238L508.827 439.692H531.204V462.096L550.631 451.038L561.856 470.228L573.105 451.038L592.556 462.12V439.716H614.981L603.9 420.286L623.088 408.916L603.804 397.762L614.909 378.356L592.508 378.236V355.832L573.081 366.938L561.904 347.748ZM561.904 347.748V347.532M561.832 168.873V169.041M561.832 168.873L547.801 144.31L561.856 136.082L575.983 144.31L561.832 168.873ZM887.395 1381.03V1352.25H899.387V1310.37L884.661 1318.93L895.765 1338.38H873.364V1360.79L853.817 1349.73L842.664 1368.92L831.463 1349.73L812.012 1360.81V1338.38H789.539L800.62 1318.93L781.432 1307.7L800.62 1296.45L789.539 1277.02H811.94V1254.62L831.391 1265.7L842.544 1246.51L853.769 1265.7L873.22 1254.62V1277.02H895.621L884.517 1296.45L899.243 1305.02V1262.87H887.251V1246.49L899.243 1239.58V1223.58L887.011 1230.58V1208.25L864.634 1208.11L875.786 1188.65L856.431 1177.43L875.619 1166.13L864.562 1146.75H886.867L887.011 1124.32L899.243 1131.35V1114.7L887.251 1107.86V1062.41L899.243 1083.3V1055.64L886.891 1034.22V972.982L899.147 980.178V964.202L887.395 957.078V940.671H899.387V898.645L884.685 907.208L895.765 926.662H873.364V949.09L853.817 938.056L842.592 957.246L831.344 938.056L811.868 949.114V926.686H789.443L800.524 907.232L781.336 895.982L800.524 884.588L789.443 865.182H811.868V842.754L831.32 853.86L842.544 834.67L853.793 853.86L873.22 842.754V865.182H895.621L884.541 884.588L899.243 893.295V851.245H887.251V834.838L899.411 827.81V811.858L887.131 819.054V757.742L899.483 736.345V708.52L887.491 729.389V684.077L899.483 677.288V660.785L887.251 667.789L887.107 645.385H864.802L875.858 626.003L856.671 614.705L876.05 603.455L864.874 583.977L887.275 583.809V561.5L899.507 568.481V552.577L887.395 545.501V529.093H899.387V486.803L884.661 495.271L895.765 514.725H873.364V537.129L853.937 526.023L842.76 545.213L831.535 526.023L812.084 537.105V514.701H789.659L800.74 495.271L781.552 484.045L800.74 472.795L789.659 453.365H812.06V430.961L831.511 442.043L842.736 422.853L853.889 442.043L873.34 430.961V453.365H895.741L884.637 472.795L899.363 481.358V439.38H887.395V410.595L899.507 417.624V399.921L887.395 407.165V378.38H899.387V336.474L884.661 345.037L895.765 364.467H873.364V386.872L853.937 375.813L842.76 395.003L831.535 375.813L812.084 386.872V364.467H789.683L800.74 345.037L781.552 333.787L800.74 322.561L789.659 303.107H812.084V280.703L831.535 291.785L842.688 272.595L853.913 291.785L873.364 280.703V303.107H895.789L884.685 322.537L899.411 331.101V288.979H887.419V272.571L899.411 265.687V249.687L887.179 256.667V234.335L864.778 234.191L875.906 214.737L856.527 203.511L875.714 192.213L864.634 172.831H886.963L887.131 150.427L899.363 157.431V140.808L887.371 133.995V88.5392L899.363 109.432V81.7987L886.987 60.3779V-0.934217L899.291 6.26203V-9.68964L887.131 -16.742V-33.1494H899.123V-75.2474L884.421 -66.6599L895.502 -47.2301H873.1V-24.8258L853.817 -35.836L842.592 -16.646L831.344 -35.836L811.868 -24.7538V-47.1581H789.467L800.524 -66.588L781.336 -77.8381L800.524 -89.2322L789.467 -108.638H811.868V-131.042L831.344 -119.96L842.544 -139.15L853.769 -119.96L873.22 -131.042V-108.638H895.645L884.565 -89.2322L899.267 -80.5247V-122.623H887.275V-139.03L899.387 -146.154V-161.986L887.107 -154.79V-216.078L899.459 -237.499V-265.372L887.467 -244.479V-289.768L899.459 -296.58V-313.107L887.227 -306.079L887.083 -328.483H864.754L875.834 -347.865L856.647 -359.163L876.026 -370.389L864.85 -389.843L887.251 -389.987V-412.32L899.387 -405.483V-421.459L887.395 -428.391V-444.775H899.387V-487.065L884.661 -478.501L895.765 -459.047H873.364V-436.643L853.817 -447.653L842.64 -428.463L831.415 -447.653L811.964 -436.595V-458.999H789.539L800.62 -478.429L781.432 -489.679L800.62 -500.905L789.539 -520.359H811.94V-542.764L831.391 -531.681L842.616 -550.871L853.769 -531.681L873.22 -542.764V-520.335H895.597L884.493 -500.905L899.387 -492.414V-534.392H887.395V-563.081L899.387 -556.053V-564.976H883.461L883.725 -564.808L858.973 -550.584L850.747 -564.976H834.629L826.403 -550.584L801.603 -564.808L801.843 -564.976H773.325L754.138 -553.582L765.219 -534.152H703.747L650.646 -564.976H650.79H623.112L603.924 -553.582L615.005 -534.152H592.604V-511.748L573.152 -522.854L561.904 -503.664L550.679 -522.854L531.252 -511.748V-534.176H508.875L519.955 -553.63L500.768 -565H472.778H472.922L419.917 -534.32H358.445L369.526 -553.774L350.146 -564.976H321.749L321.989 -564.832L297.381 -550.584L289.154 -564.976H272.965L264.738 -550.584L239.819 -564.832L240.082 -564.976H211.613L192.426 -553.606L203.506 -534.152H142.059L88.9094 -564.976H89.0533H61.3754L42.188 -553.606L53.2687 -534.152H30.8434V-511.724L11.2722 -522.782L-0.0244141 -503.496V-564.976V-324.981L14.1263 -300.25L-0.0244141 -292.022V-275.807L14.1263 -267.531L-0.0244141 -242.824V-179.545V-214.495L11.2002 -195.305L30.6515 -206.387V-183.959H53.0528L42.116 -164.385L61.3034 -153.159L42.116 -141.909L53.1968 -122.479H30.7954V-100.075L11.3441 -111.157L0.0715231 -91.9667V-63.9494L11.3441 -44.7594L30.7714 -55.8416V-33.4133H53.1728L42.092 -13.9594L61.2795 -2.7093L42.092 8.51686L53.1728 27.9707H30.7714V50.3991L11.3441 39.2928L-0.0244141 58.6987V87.0279L14.1263 111.687L-0.0244141 119.915V136.058L14.1263 144.31L-0.0244141 169.041V197.322L11.2002 216.512L30.6515 205.43V266.886L-0.0244141 320.162V197.442V347.724L11.2242 366.914L30.6995 355.856V378.26H53.1008L42.0201 397.666L61.2075 408.916L42.0201 420.286L53.1008 439.716H30.6995V462.12L11.2482 451.038L0.0235545 470.228V648.743L14.1503 673.474L-0.0244141 681.87V698.085L14.1263 706.361L-0.0244141 731.044V803.006V759.253L11.2002 778.443L30.6515 767.361V789.765H53.0528L42.14 809.507L61.3274 820.733L42.14 831.959L53.2207 851.413H30.8194V873.818L11.2962 862.759L0.0235545 881.949V909.967L11.2962 929.157L30.7474 918.075V940.479H53.1488L42.068 959.933L61.2555 971.159L42.068 982.409L53.1488 1001.84H30.7474V1024.24L11.2962 1013.16L-0.0244141 1032.59V988.838V1110.14L14.0784 1118.37L-0.0244141 1142.93V1321.5L11.2002 1340.69L30.6515 1329.6V1352.01H53.0528L41.9721 1371.44L61.1595 1382.64H89.0773L141.843 1352.01H203.291L192.21 1371.44L211.397 1382.66H240.058L264.57 1368.49L272.797 1382.62H288.986L297.237 1368.49L321.749 1382.81H350.146L369.334 1371.58L358.277 1352.15H419.725L472.49 1382.74H500.168L519.356 1371.51L508.275 1352.08H530.652V1329.68L550.056 1340.76L561.232 1321.57V1321.35V1321.47V1321.69L572.409 1340.88L591.812 1329.87V1352.27H614.238L603.133 1371.7L622.32 1382.9H650.094L702.86 1352.37H764.331L753.251 1371.8L772.438 1383H801.003L825.515 1368.82L834.629 1382.81H850.819L859.069 1368.68L883.509 1382.81H899.387V1374L887.395 1381.03ZM850.747 408.916L858.997 394.763L883.509 408.916L883.749 409.06L858.949 423.309L850.747 408.916ZM766.802 1299.6L752.723 1291.34L767.114 1266.23L781.504 1291.1L766.802 1299.6ZM736.486 1263.11V1246.77L751.164 1238.31L765.555 1263.18L736.486 1263.11ZM797.933 1262.87H769.416L783.807 1238.24L797.981 1246.37L797.933 1262.87ZM826.187 1246.46L812.012 1238.33V1221.97H840.506L826.187 1246.46ZM873.244 1221.97V1238.33L859.045 1246.46L844.655 1221.85L873.244 1221.97ZM856.863 1193.74L842.784 1218.61L828.393 1193.74L842.088 1185.25L856.863 1193.74ZM842.688 1168.96L828.537 1160.73L842.688 1135.98L856.743 1160.73L842.688 1168.96ZM812.18 1132.38V1115.42L826.355 1107.34L840.865 1132.38H812.18ZM873.052 1132.38H844.271L858.83 1107.34L872.956 1115.42L873.052 1132.38ZM858.997 957.078L873.388 965.186V1010.52L850.795 971.207L858.997 957.078ZM811.964 965.186L826.355 957.078L834.653 971.183L812.012 1010.5L811.964 965.186ZM811.964 1037.96L842.616 984.928L873.148 1037.96V1099.42L853.817 1088.24L842.568 1107.43L831.344 1088.24L811.916 1099.32L811.964 1037.96ZM820.503 1146.7L809.446 1166.08L828.633 1177.38L809.422 1188.51L820.575 1207.94L798.173 1208.08V1230.42L778.794 1219.33L767.497 1238.52L756.273 1219.17L736.821 1230.32L736.677 1207.92H714.348L725.429 1188.53L706.241 1177.26L725.597 1166.01L714.42 1146.58L736.821 1146.41V1124.08L756.201 1135.16L767.497 1115.97L778.722 1135.33L798.173 1124.15L798.317 1146.58L820.503 1146.7ZM561.76 1142.84V1142.93L547.729 1118.37L561.784 1110.14L575.887 1118.37L561.76 1142.84ZM592.124 1146.63V1163.59L577.997 1171.55L563.607 1146.53L592.124 1146.63ZM559.937 1146.63L545.427 1171.65L531.252 1163.59V1146.53L559.937 1146.63ZM561.784 1093.85L547.729 1085.72L561.784 1061.09V1061.23L575.863 1085.84L561.808 1094L561.784 1093.85ZM531.276 1057.3V1040.34L545.451 1032.25L559.961 1057.3H531.276ZM563.463 1057.3L577.997 1032.16L592.124 1040.24V1057.2L563.463 1057.3ZM572.937 1013.26L561.76 1032.59L550.535 1013.28L531.084 1024.39V1001.98H508.659L519.763 982.553L500.576 971.327L519.763 960.077L508.659 940.647H531.06V918.242L550.487 929.325L561.664 910.422V910.063V910.255L572.841 929.157L592.292 918.075V940.479H614.693L603.613 959.909L622.8 971.159L603.613 982.385L614.693 1001.79H592.292V1024.2L572.937 1013.26ZM356.31 1266.18L370.701 1291.3L356.646 1299.55L341.944 1291.06L356.31 1266.18ZM325.586 1262.87V1246.49L339.761 1238.38L354.152 1262.99L325.586 1262.87ZM358.061 1263.3L372.452 1238.43L387.154 1246.9V1263.23L358.061 1263.3ZM386.842 1208.13L386.699 1230.56L367.247 1219.38L356.023 1238.76L344.726 1219.57L325.347 1230.66V1208.32L302.921 1208.18L314.17 1188.51L294.815 1177.28L314.002 1165.99L302.921 1146.6H325.251L325.395 1124.17L344.846 1135.35L356.071 1116L367.391 1135.19L386.746 1124.1V1146.44L409.172 1146.58L398.115 1166.08L417.47 1177.31L398.115 1188.51L409.196 1207.89L386.842 1208.13ZM205.545 1266.18L219.936 1291.06L205.257 1299.55L191.202 1291.3L205.545 1266.18ZM174.749 1263.13V1246.77L189.452 1238.31L203.842 1263.18L174.749 1263.13ZM207.68 1262.87L222.07 1238.24L236.245 1246.37V1262.75L207.68 1262.87ZM217.034 1219.36L205.713 1238.55L194.488 1219.19L175.061 1230.46L174.917 1208.06H152.588L163.644 1188.51L144.457 1177.21L163.812 1165.99L152.66 1146.53L175.061 1146.36V1124.03L194.44 1135.11L205.737 1115.92L216.962 1135.31L236.413 1124.13L236.557 1146.56H258.886L247.805 1165.94L266.993 1177.24L247.685 1188.51L258.862 1207.99L236.461 1208.13V1230.46L217.034 1219.36ZM97.6876 1001.79L108.744 982.433L89.557 971.135L142.754 940.431H203.962L173.262 993.443L120.161 1024.24L119.897 1001.84L97.6876 1001.79ZM106.25 1032.06L91.5477 1040.53L77.1571 1015.63H106.13L106.25 1032.06ZM69.3382 895.982L88.5256 884.612L77.4449 865.182H138.917L192.018 895.862L139.085 926.566H77.6128L88.7175 907.232L69.3382 895.982ZM97.6876 790.053H119.993L120.161 767.673L173.262 798.473L203.842 851.437H142.634L89.461 820.733L108.648 809.387L97.6876 790.053ZM77.205 776.188L91.5956 751.313L106.298 759.781V776.141L77.205 776.188ZM97.6876 27.9227L108.744 8.56484L89.557 -2.75725L142.754 -33.4373H203.962L173.262 19.5751L120.161 50.3991L119.897 27.9707L97.6876 27.9227ZM106.25 58.171L91.5477 66.6386L77.1571 41.7635H106.13L106.25 58.171ZM69.3382 -77.9101L88.5256 -89.2561L77.4449 -108.71H138.917L192.018 -78.03L139.085 -47.326H77.6128L88.7175 -66.6599L69.3382 -77.9101ZM97.6876 -183.815L119.993 -183.935L120.161 -206.315L173.262 -175.539L203.842 -122.407H142.634L89.461 -153.159L108.648 -164.481L97.6876 -183.815ZM77.205 -197.68L91.5956 -222.555L106.298 -214.087V-197.752L77.205 -197.68ZM205.521 -448.205L191.13 -473.32L205.185 -481.596L219.864 -473.104L205.521 -448.205ZM236.197 -444.775V-428.367L222.07 -420.236L207.68 -444.871L236.197 -444.775ZM203.842 -445.183L189.452 -420.307L174.773 -428.775V-445.111L203.842 -445.183ZM175.061 -390.011V-412.488L194.488 -401.333L205.737 -420.691L217.058 -401.501L236.413 -412.584V-390.251L258.838 -390.107L247.661 -370.653L267.017 -359.427L247.829 -348.129L258.91 -328.747H236.581L236.437 -306.343L216.986 -317.497L205.761 -298.139L194.464 -317.329L175.061 -306.175V-328.507L152.636 -328.675L163.812 -348.105L144.361 -359.355L163.549 -370.629L152.444 -390.035L175.061 -390.011ZM356.502 -448.133L342.112 -473.032L356.814 -481.524L370.869 -473.248L356.502 -448.133ZM387.034 -445.039V-428.703L372.332 -420.236L357.941 -445.111L387.034 -445.039ZM354.104 -444.799L339.713 -420.164L325.515 -428.295V-444.679L354.104 -444.799ZM344.798 -401.333L356.095 -420.523L367.319 -401.165L386.77 -412.32L386.914 -389.915H409.22L398.115 -370.677L417.302 -359.379L398.115 -348.105L409.292 -328.675L386.866 -328.531V-306.199L367.511 -317.281L356.19 -298.091L344.966 -317.449L325.515 -306.295L325.371 -328.699H303.041L314.122 -348.081L294.935 -359.355L314.17 -370.677L303.017 -390.131L325.419 -390.275V-412.584L344.798 -401.333ZM561.736 -324.717V-325.101V-324.909L575.791 -300.346L561.736 -292.166L547.705 -300.346L561.736 -324.717ZM531.324 -328.483V-345.538L545.499 -353.598L560.009 -328.579L531.324 -328.483ZM563.511 -328.483L577.997 -353.598L592.124 -345.538V-328.579L563.511 -328.483ZM592.196 -239.13V-222.195L577.997 -214.207L563.607 -239.226L592.196 -239.13ZM560.009 -239.13L545.475 -214.111L531.324 -222.195V-239.226L560.009 -239.13ZM550.415 -195.113L561.664 -214.303L572.913 -195.113L592.364 -206.195V-183.791H614.765L603.852 -164.385L623.04 -153.159L603.852 -141.909L614.933 -122.479H592.532V-100.075L573.081 -111.157L561.952 -92.2306V-91.8708L561.832 -92.0627V-91.8708V-92.2306L550.679 -111.157L531.228 -100.075V-122.479H508.803L519.907 -141.933L500.6 -153.159L519.907 -164.409L508.803 -183.839H531.204V-206.243L550.415 -195.113ZM706.313 -375.379L681.442 -360.986V-389.939H697.775L706.313 -375.379ZM683.744 -443L722.958 -420.307L722.791 -403.9L706.313 -403.756L683.744 -443ZM706.289 -314.451H722.671V-285.93L698.063 -300.322L706.289 -314.451ZM681.825 -328.555V-357.052L706.433 -342.66L698.279 -328.459L681.825 -328.555ZM720.728 -199.695L681.514 -222.387L681.633 -238.794L698.111 -238.914L720.728 -199.695ZM698.135 -267.531L723.006 -281.924V-252.947H706.673L698.135 -267.531ZM681.729 -183.839L681.897 -206.219L735.023 -175.443L765.627 -122.311H704.419L651.221 -152.991L670.409 -164.313L659.544 -183.839H681.729ZM744.952 303.107L733.895 322.561L753.083 333.835L699.838 364.467H638.654L669.282 311.383L722.407 280.583L722.551 302.987L744.952 303.107ZM736.438 272.859L751.116 264.391L765.507 289.266H736.51L736.438 272.859ZM773.325 408.916L754.138 420.286L765.219 439.716H703.747L650.646 408.916H650.79L703.555 378.332H765.027L753.946 397.738L773.325 408.916ZM744.928 514.845H722.623L722.479 537.249L669.354 506.425L638.75 453.365H699.933L753.083 484.165L733.895 495.487L744.928 514.845ZM765.483 528.686L751.092 553.561L736.414 545.093V528.758L765.483 528.686ZM602.845 895.838L577.997 910.255L569.771 895.862L577.997 881.709L602.845 895.838ZM553.677 895.982L545.451 910.135L520.699 895.742L545.451 881.589L553.677 895.982ZM386.699 1056.91V1079.22L367.343 1068.14L356.023 1087.33L325.371 1034.13V972.862L378.328 1003.52L409.124 1056.63L386.699 1056.91ZM397.491 1101.77L372.62 1116.16L364.105 1101.48L372.38 1087.43L397.491 1101.77ZM348.228 1101.77L339.953 1115.9L325.563 1107.77V1062.43L348.228 1101.77ZM281.072 1135.93L294.983 1160.64L280.952 1168.86L266.777 1160.64L281.072 1135.93ZM250.564 1132.33V1115.37L264.714 1107.29L279.249 1132.33H250.564ZM282.751 1132.33L297.309 1107.29L311.436 1115.37V1132.33H282.751ZM292.344 1088.29L281.096 1107.48L269.871 1088.29L250.42 1099.37V1037.92L281.096 984.88L311.628 1037.92V1099.37L292.344 1088.29ZM250.468 1010.45V965.09L264.858 956.958L273.157 971.087L250.468 1010.45ZM289.178 971.159L297.453 957.03L311.843 965.138V1010.47L289.178 971.159ZM311.772 949.186L292.344 938.104L281.096 957.294L269.871 938.104L250.42 949.186V926.758H227.994L239.075 907.304L219.888 896.054L239.075 884.66L227.826 865.158H250.252V842.73L269.703 853.836L280.928 834.526L292.176 853.836L311.604 842.73V865.158H334.005L322.924 884.564L342.112 895.958L322.924 907.208L334.005 926.662H311.604L311.772 949.186ZM205.809 1087.45L194.488 1068.26L175.061 1079.22V1056.91L152.636 1056.75L183.456 1003.64L236.365 972.934V1034.22L205.809 1087.45ZM236.173 1062.41V1107.7L221.782 1115.83L213.508 1101.7L236.173 1062.41ZM197.798 1101.41L189.308 1116.12L164.436 1101.72L189.548 1087.33L197.798 1101.41ZM144.481 614.465L163.668 603.167L152.564 583.761H174.893L175.061 561.333L194.488 572.487L205.737 553.129L217.034 572.319L236.389 561.237V583.569L258.79 583.713L247.638 603.167L266.993 614.393L247.805 625.691L258.91 645.049H236.581L236.437 667.477L216.986 656.299L205.761 675.657L194.464 656.467L175.061 667.693V645.361H152.636L163.812 625.907L144.481 614.465ZM144.481 203.295L163.836 192.045L152.684 172.615L175.085 172.471V150.139L194.464 161.197L205.761 142.007L216.986 161.365L236.437 150.211L236.581 172.615H258.91L247.829 191.997L267.017 203.271L247.685 214.617L258.862 234.071L236.437 234.239V256.548L217.081 245.489L205.761 264.679L194.536 245.321L175.061 256.571L174.917 234.167H152.588L163.644 214.617L144.481 203.295ZM175.061 -238.986V-261.294L194.416 -250.212L205.713 -269.402L236.389 -216.198V-154.91L183.479 -185.686L152.66 -238.746L175.061 -238.986ZM164.292 -283.819L189.164 -298.211L197.654 -283.531L189.452 -269.378L164.292 -283.819ZM213.532 -283.819L221.806 -297.947L236.197 -289.84V-244.503L213.532 -283.819ZM280.952 -317.905L266.777 -342.66L280.832 -350.888L294.983 -342.66L280.952 -317.905ZM311.34 -314.307V-297.348L297.189 -289.288L282.655 -314.307H311.34ZM279.153 -314.307L264.618 -289.288L250.468 -297.348V-314.307H279.153ZM269.559 -270.314L280.784 -289.504L292.032 -270.314L311.46 -281.396V-219.94L280.952 -166.784L250.276 -219.82V-281.276L269.559 -270.314ZM311.484 -192.45V-147.162L297.093 -139.03L288.819 -153.183L311.484 -192.45ZM272.773 -153.183L264.498 -139.03L250.108 -147.162V-192.45L272.773 -153.183ZM269.559 -120.104L280.784 -139.294L292.032 -120.104L311.436 -131.186V-108.782H333.861L322.78 -89.3761L341.968 -77.982L322.78 -66.7319L333.861 -47.302H311.436V-24.8977L292.032 -35.9799L280.784 -16.7899L269.559 -35.9799L250.108 -24.8977V-47.302H227.683L238.763 -66.7319L219.576 -77.982L238.763 -89.4001L227.826 -108.734H250.252V-131.138L269.559 -120.104ZM355.903 -269.498L367.223 -250.308L386.579 -261.39V-239.082L408.98 -238.914L378.184 -185.782L325.251 -155.078V-216.366L355.903 -269.498ZM325.563 -244.479V-289.792L339.953 -297.899L348.228 -283.795L325.563 -244.479ZM364.081 -283.435L372.572 -298.139L397.443 -283.747L372.332 -269.354L364.081 -283.435ZM520.675 -78.03L545.451 -92.1586L553.677 -77.7661L545.451 -63.6135L520.675 -78.03ZM569.867 -78.03L578.093 -92.1586L602.845 -78.03L577.997 -63.6375L569.867 -78.03ZM623.352 -108.47L631.434 -94.3175L606.395 -79.7811V-108.566L623.352 -108.47ZM622.728 -136.823L636.903 -145.147L676.141 -122.479H630.859L622.728 -136.823ZM698.494 128.095L679.307 139.369L690.364 158.751H668.058L667.914 181.155L648.463 170.001L637.239 189.359L625.942 170.169L606.563 181.251V158.918L584.161 158.775L595.314 139.345L575.959 128.119L595.146 116.82L584.065 97.4385H606.395L606.539 75.0102L625.966 86.1884L637.215 66.8305L648.511 86.0205L667.866 74.9382V97.2706L690.292 97.4146L679.115 116.844L698.494 128.095ZM698.494 689.953L679.139 701.204L690.268 720.633L667.866 720.777V743.11L648.511 732.028L637.191 751.218L625.966 731.908L606.539 743.062L606.299 720.753H584.017L595.098 701.371L575.911 690.073L595.266 678.823L584.113 659.393L606.515 659.249V636.917L625.894 647.999L637.191 628.809L648.415 648.167L667.866 637.013L668.01 659.417H690.34L679.259 678.799L698.494 689.953ZM630.763 851.341L622.632 836.949L636.831 828.601L676.045 851.293L630.763 851.341ZM631.338 879.527L606.323 894.087V865.302H623.28L631.338 879.527ZM622.68 804.062L637.071 779.187L651.461 804.302L637.406 812.554L622.68 804.062ZM606.347 775.757V759.373L620.521 751.265L634.912 775.877L606.347 775.757ZM638.845 776.188L653.236 751.289L667.938 759.781V776.117L638.845 776.188ZM250.3 753.952V692.496L269.727 703.578L280.952 684.268L292.176 703.578L311.628 692.496V753.952L280.976 807.108L250.3 753.952ZM272.893 820.685L264.618 834.814L250.228 826.682V781.394L272.893 820.685ZM227.826 514.797L238.931 495.367L219.744 484.117L238.931 472.891L227.826 453.461H250.228V431.057L269.679 442.139L280.904 422.949L292.08 442.139L311.484 431.057V453.437H333.909L322.804 472.867L341.992 484.093L322.804 495.343L333.909 514.773H311.484V537.177L292.032 526.095L280.88 545.285L269.631 526.095L250.204 537.177V514.773L227.826 514.797ZM236.269 545.453L222.094 553.585L207.704 528.973H236.221L236.269 545.453ZM219.48 333.787L238.667 322.561L227.826 303.107H250.252V280.703L269.679 291.785L280.856 272.595L292.08 291.785L311.532 280.703V303.107H333.957L322.852 322.537L342.16 333.763L322.852 345.013L333.957 364.443H311.532V386.848L292.104 375.789L280.928 394.979L269.703 375.789L250.252 386.848V364.443H227.85L238.931 345.013L219.48 333.787ZM207.68 288.979L222.07 264.367L236.245 272.475V288.859L207.68 288.979ZM250.276 64.0239L280.952 10.9876L311.484 64.0239V125.456L292.056 114.374L280.808 133.564L269.583 114.374L250.132 125.456L250.276 64.0239ZM250.276 36.5342V-8.77814L264.666 -16.9099L272.965 -2.80524L250.276 36.5342ZM492.733 -33.3893L500.84 -18.9968L486.617 -10.865L447.379 -33.5332L492.733 -33.3893ZM492.133 -61.5986L517.149 -76.135V-47.35H500.216L492.133 -61.5986ZM561.856 86.908V87.0519L575.935 111.687L561.88 119.867L547.849 111.687L561.88 87.0519L561.856 86.908ZM563.535 83.3099L577.997 58.2909L592.124 66.3507V83.3099H563.535ZM547.705 673.642L561.736 649.055V648.791V648.959L575.791 673.546L561.736 681.702L547.705 673.642ZM531.348 645.313V628.354L545.523 620.27L560.033 645.313H531.348ZM563.535 645.313L577.997 620.27L592.124 628.354V645.313H563.535ZM573.009 601.344L561.76 620.534L550.535 601.344L531.132 612.426V550.946L561.664 497.934H561.808L592.388 550.946V612.426L573.009 601.344ZM531.084 523.456V478.144L545.475 470.036L553.749 484.141L531.084 523.456ZM569.819 484.141L578.117 470.036L592.508 478.144V523.456L569.819 484.141ZM486.665 600.48L475.344 581.17L455.989 592.252V569.944L433.588 569.752L464.384 516.644L517.317 485.988V547.276L486.665 600.48ZM517.101 575.485V620.774L502.711 628.905L494.412 614.777L517.101 575.485ZM478.558 614.201L470.068 628.905L445.172 614.513L470.284 600.12L478.558 614.201ZM416.919 720.897L400.513 720.753V691.968L425.385 706.361L416.919 720.897ZM425.457 734.858L441.934 735.002V751.409L402.912 774.102L425.457 734.858ZM417.302 631.088L441.91 616.696L441.79 645.217H425.433L417.302 631.088ZM425.433 673.498L400.801 687.891L400.945 659.369H417.326L425.433 673.498ZM342.016 500.788L356.718 492.297L370.773 500.572L356.382 525.663L342.016 500.788ZM354.152 529.021L339.761 553.657L325.586 545.525V529.117L354.152 529.021ZM356.358 292.313L370.749 317.428L356.694 325.679L341.992 317.188L356.358 292.313ZM325.586 288.979V272.571L339.761 264.463L354.152 289.099L325.586 288.979ZM425.409 111.855L400.513 126.247V97.0787H416.847L425.409 111.855ZM402.912 43.8744L442.126 66.5666V82.95L425.649 83.094L402.912 43.8744ZM425.481 172.663H441.838V201.16L417.231 186.768L425.481 172.663ZM400.969 158.607L400.825 130.086L425.457 144.478L417.302 158.655L400.969 158.607ZM456.133 247.984V225.676L475.488 236.758L486.785 217.568L517.437 270.772V332.036L464.504 301.38L433.564 248.2L456.133 247.984ZM445.364 203.367L470.236 188.975L478.726 203.679L470.452 217.712L445.364 203.367ZM494.652 203.175L502.926 189.047L517.317 197.179V242.491L494.652 203.175ZM492.829 439.668H447.523L486.737 416.976L500.936 425.299L492.829 439.668ZM517.269 453.701V470.108L478.007 492.872L500.624 453.629L517.269 453.701ZM350.146 408.916L369.334 397.666L358.253 378.26H419.725L472.49 408.868H472.634L419.605 439.524H358.133L369.214 420.094L350.146 408.916ZM447.283 378.284H492.589L500.696 392.677L486.497 401.024L447.283 378.284ZM500.552 364.395L477.935 325.176L517.101 347.868V364.251L500.552 364.395ZM441.982 234.167H425.649L417.302 219.535L442.174 205.142L441.982 234.167ZM439.776 287.18L400.561 264.487L400.705 248.08L417.183 247.936L439.776 287.18ZM400.801 303.035L400.969 280.655L454.07 311.455L484.674 364.539H423.466L370.269 333.883L389.457 322.561L378.4 303.227L400.801 303.035ZM386.962 289.242H357.989L372.38 264.367L387.082 272.835L386.962 289.242ZM395.213 364.563H349.931L341.8 350.171L355.999 341.847L395.213 364.563ZM342.447 378.524L350.506 392.677L325.491 407.213V378.428L342.447 378.524ZM350.506 425.371L342.447 439.548H325.491V410.763L350.506 425.371ZM349.955 453.581H395.237L356.071 476.081L341.872 467.733L349.955 453.581ZM387.034 528.853V545.189L372.332 553.657L357.941 528.782L387.034 528.853ZM378.544 514.941L389.601 495.583L370.413 484.261L423.61 453.605H484.818L454.214 506.665L401.113 537.489L400.945 515.085L378.544 514.941ZM439.824 530.892L417.302 570.04L400.825 569.896L400.681 553.513L439.824 530.892ZM425.697 583.809H442.03V612.762L417.302 598.417L425.697 583.809ZM531.084 339.832V294.472L553.701 333.763L545.427 347.916L531.084 339.832ZM578.117 347.988L569.819 333.859L592.388 294.472V339.784L578.117 347.988ZM592.388 266.982L561.832 320.018H561.688L531.18 266.958V205.502L550.583 216.632L561.808 197.442L573.057 216.632L592.484 205.526L592.388 266.982ZM531.348 189.598V172.663H560.129L545.595 197.682L531.348 189.598ZM592.196 189.598L577.997 197.682L563.607 172.663H592.388L592.196 189.598ZM531.348 83.3099V66.3507L545.499 58.2909L560.033 83.3099H531.348ZM539.526 97.3665L528.446 116.724L547.633 128.023L528.278 139.273L539.455 158.703L517.029 158.846V181.179L497.674 170.097L486.353 189.287L475.129 169.929L455.677 181.179L455.533 158.775H433.204L444.285 139.393L425.097 128.119L444.453 116.892L433.3 97.4385L455.701 97.2946V74.9622L475.081 86.0444L486.353 66.8544L497.602 86.2124L517.029 75.0582L517.197 97.4625L539.526 97.3665ZM455.581 58.171V41.8115H484.554L470.164 66.6865L455.581 58.171ZM502.998 66.6626L488.608 42.0514H517.125V58.4588L502.998 66.6626ZM486.449 38.7411L472.059 13.6262L486.113 5.3745L500.816 13.8661L486.449 38.7411ZM472.346 -2.75725L453.039 8.56484L464.12 27.9227H441.79L441.647 50.3271L388.521 19.5751L357.917 -33.4852H419.101L472.346 -2.75725ZM350.026 -47.278L341.896 -61.6705L356.095 -70.0182L395.309 -47.302L350.026 -47.278ZM341.992 -33.3413L364.537 5.92621L325.395 -16.766V-33.1734L341.992 -33.3413ZM378.28 29.7458L409.076 82.8781L386.675 83.046V105.354L367.319 94.2721L355.999 113.462L325.299 60.3779V-0.934217L378.28 29.7458ZM397.467 127.879L372.596 142.271L364.105 127.567L372.356 113.51L397.467 127.879ZM348.228 127.879L339.953 142.007L325.563 133.875V88.5392L348.228 127.879ZM325.395 150.307L344.822 161.461L356.071 142.103L367.367 161.293L386.746 150.235V172.567L409.148 172.711L397.995 192.141L417.35 203.391L398.163 214.665L409.22 234.071H386.914L386.77 256.476L367.319 245.321L356.095 264.679L344.798 245.489L325.419 256.571V234.239L302.993 234.095L314.17 214.617L294.815 203.391L314.002 192.093L302.945 172.711H325.251L325.395 150.307ZM311.508 264.415L297.381 272.499L282.99 247.888L311.508 248.032V264.415ZM282.727 158.439L297.261 133.396L311.412 141.48V158.439H282.727ZM311.652 36.6062L289.034 -2.73328L297.309 -16.8379L311.7 -8.73015L311.652 36.6062ZM250.54 141.456L264.69 133.396L279.225 158.415H250.444L250.54 141.456ZM281.024 162.013L294.983 186.72L280.928 194.972L266.777 186.72L281.024 162.013ZM295.174 219.775L281.12 244.65L266.729 219.775L280.448 211.283L295.174 219.775ZM278.889 247.936L264.498 272.475L250.3 264.343V248.008L278.889 247.936ZM322.061 409.06L297.381 423.309L289.154 408.916L297.381 394.763L321.773 408.916L322.061 409.06ZM240.106 408.916L264.618 394.715L272.845 408.868L264.618 423.261L239.819 408.916L240.082 408.796L240.106 408.916ZM311.532 553.609V569.968L283.038 570.112L297.429 545.501L311.532 553.609ZM264.427 545.477L278.817 570.064L250.3 569.944V553.609L264.427 545.477ZM281.024 573.35L295.102 598.225L281.383 606.717L266.681 598.225L281.024 573.35ZM294.983 631.232L280.952 655.987L266.777 631.232L280.832 622.98L294.983 631.232ZM311.34 659.561V676.544L297.189 684.604L282.655 659.585L311.34 659.561ZM279.153 659.561L264.618 684.58L250.468 676.52V659.585L279.153 659.561ZM311.58 781.394V826.682L297.189 834.814L288.914 820.685L311.58 781.394ZM302.969 645.193L314.026 625.835L294.839 614.537L314.17 603.215L303.017 583.785L325.419 583.641V561.309L344.798 572.367L356.071 553.177L367.319 572.535L386.746 561.381L386.89 583.785H409.22L398.115 603.215L417.302 614.489L398.115 625.787L409.268 645.217L386.866 645.385V667.693L367.511 656.611L356.214 675.801L344.966 656.443L325.539 667.597L325.395 645.193H302.969ZM397.491 690.049L372.38 704.442L364.129 690.385L372.62 675.705L397.491 690.049ZM348.252 690.049L325.61 729.341V684.077L340.001 675.993L348.252 690.049ZM355.951 704.442L367.295 723.752L386.651 712.67V734.978L409.052 735.146L378.256 788.278L325.299 818.934V757.646L355.951 704.442ZM364.657 812.122L342.04 851.341L325.563 851.197V834.814L364.657 812.122ZM350.146 865.278H395.453L356.214 887.97L342.04 879.622L350.146 865.278ZM358.037 851.461L388.521 798.377L441.623 767.601L441.766 789.981H464.096L453.039 809.507L472.227 820.829L418.981 851.485L358.037 851.461ZM455.677 759.781L470.356 751.289L484.746 776.164H455.773L455.677 759.781ZM486.593 828.697L500.792 837.045L492.685 851.437H447.379L486.593 828.697ZM486.041 812.601L471.987 804.35L486.377 779.235L500.768 804.11L486.041 812.601ZM488.584 775.925L502.974 751.313L517.149 759.421V775.805L488.584 775.925ZM517.029 743.11L497.602 731.956L486.353 751.313L475.081 732.123L455.677 743.062V720.729L433.276 720.585L444.429 701.156L425.073 689.906L444.261 678.607L433.204 659.226H455.533L455.677 636.797L475.105 647.975L486.353 628.617L497.65 647.807L517.005 636.725V659.058L539.407 659.202L528.254 678.655L547.609 689.906L528.422 701.18L539.502 720.561H517.173L517.029 743.11ZM531.42 734.69H560.201L545.666 759.709L531.516 751.649L531.42 734.69ZM592.268 734.69V751.649L577.997 759.661L563.607 734.642L592.268 734.69ZM606.659 620.846V575.509L629.276 614.801L621.001 628.929L606.659 620.846ZM653.644 628.977L645.177 614.273L653.428 600.216L678.54 614.609L653.644 628.977ZM667.771 570.016V592.324L648.415 581.242L637.119 600.552L606.467 547.324V486.036L659.424 516.692L690.22 569.8L667.771 570.016ZM606.539 470.156V453.749L623.016 453.605L645.489 492.872L606.539 470.156ZM622.944 425.419L637.143 417.072L676.357 439.788H631.075L622.944 425.419ZM622.944 392.629L631.075 378.236H676.357L637.143 400.928L622.944 392.629ZM622.944 364.419L606.491 364.275V347.892L645.633 325.2L622.944 364.419ZM606.323 332.012V270.724L636.975 217.52L648.295 236.71L667.651 225.604V247.936L690.052 248.152L659.256 301.26L606.323 332.012ZM606.539 242.515V197.155L620.929 188.999L629.204 203.127L606.539 242.515ZM653.308 217.832L645.057 203.775L653.548 189.071L678.42 203.463L653.308 217.832ZM606.467 58.6027V42.1953H634.984L620.593 66.8065L606.467 58.6027ZM653.356 66.6865L638.965 41.8115H667.938V58.171L653.356 66.6865ZM637.191 38.7891L622.8 13.914L637.502 5.42245L651.557 13.6742L637.191 38.7891ZM636.975 -10.6731L622.8 -19.0208L630.931 -33.4133H676.213L636.975 -10.6731ZM623.424 -47.398H606.467V-76.183L631.482 -61.6465L623.424 -47.398ZM517.197 -79.7811L492.181 -94.3175L500.264 -108.47H517.197V-79.7811ZM492.757 -122.527H447.451L486.593 -145.195L500.792 -136.871L492.757 -122.527ZM484.339 -108.662L473.258 -89.2082L492.445 -77.8381L473.258 -66.612L484.339 -47.1821H422.867L369.79 -78.03L422.795 -108.662H484.339ZM356.19 -85.8979L341.992 -94.2455L350.122 -108.638H395.405L356.19 -85.8979ZM342.088 -122.503L325.634 -122.647V-139.054L364.801 -161.722L342.088 -122.503ZM236.389 -139.054V-122.671L219.936 -122.527L197.127 -161.794L236.389 -139.054ZM219.96 -94.2695L205.785 -85.9459L166.571 -108.638H211.877L219.96 -94.2695ZM205.785 -69.8503L219.984 -61.5506L211.877 -47.1581H166.571L205.785 -69.8503ZM219.84 -33.2934L236.293 -33.1734V-16.766L197.127 5.92621L219.84 -33.2934ZM236.461 -0.886232V60.4018L205.809 113.558L194.488 94.3681L175.061 105.354V83.046L152.66 82.8541L183.456 29.7458L236.461 -0.886232ZM236.221 88.5871V133.851L221.83 141.983L213.436 127.807L236.221 88.5871ZM189.452 113.462L197.702 127.519L189.236 142.223L164.34 127.831L189.452 113.462ZM189.452 264.391L203.842 289.266H174.845V272.907L189.452 264.391ZM205.617 292.265L220.008 317.14L205.305 325.631L191.25 317.38L205.617 292.265ZM205.737 341.751L219.936 350.075L211.829 364.467H166.523L205.737 341.751ZM219.312 378.428H236.269V407.213L211.229 392.677L219.312 378.428ZM236.269 439.452H219.312L211.229 425.276L236.269 410.763V439.452ZM211.829 453.461L219.936 467.853L205.737 476.081L166.523 453.389L211.829 453.461ZM219.84 500.716L205.449 525.591L191.059 500.476L205.113 492.225L219.84 500.716ZM203.842 528.662L189.452 553.561L174.773 545.069V528.734L203.842 528.662ZM236.293 684.077V729.413L213.676 690.097L221.95 675.969L236.293 684.077ZM189.308 675.729L197.798 690.433L189.452 704.442L164.34 690.049L189.308 675.729ZM175.061 734.882V712.574L194.44 723.656L205.737 704.346L236.389 757.574V818.862L183.479 788.182L152.66 735.146L175.061 734.882ZM236.269 834.766V851.149L219.816 851.293L197.127 812.074L236.269 834.766ZM219.912 879.551L205.713 887.874L166.499 865.206H211.805L219.912 879.551ZM205.713 903.97L219.912 912.293L211.805 926.686H166.499L205.713 903.97ZM219.768 940.527L236.221 940.671V957.078L197.127 979.818L219.768 940.527ZM325.491 957.078V940.671L341.968 940.527L364.537 979.818L325.491 957.078ZM341.896 912.317L356.095 903.97L395.309 926.662H350.026L341.896 912.317ZM369.79 895.862L422.795 865.23H484.267L473.186 884.684L492.373 896.054L473.186 907.28L484.267 926.71H422.795L369.79 895.862ZM492.685 940.455L500.816 954.847L486.617 963.195L447.379 940.503L492.685 940.455ZM500.192 926.398L492.11 912.246L517.125 897.709V926.494L500.192 926.398ZM492.11 879.455L500.192 865.326H517.125V894.111L492.11 879.455ZM631.41 912.246L623.352 926.398H606.395V897.613L631.41 912.246ZM630.883 940.455H676.165L636.927 963.147L622.752 954.799L630.883 940.455ZM639.301 926.638L650.382 907.208L631.194 895.982L650.382 884.612L639.301 865.158H700.773L753.778 895.862L700.773 926.518L639.301 926.638ZM651.293 820.661L670.601 809.339L659.544 790.053H681.849L682.017 767.649L735.118 798.449L765.746 851.533H704.539L651.293 820.661ZM681.586 751.337L681.705 734.93L698.183 734.786L720.8 774.03L681.586 751.337ZM698.135 706.361L723.006 691.968V720.969H706.673L698.135 706.361ZM698.135 673.618L706.265 659.441H722.623L722.743 687.963L698.135 673.618ZM698.135 645.385H681.777V616.888L706.361 631.28L698.135 645.385ZM681.346 612.858V583.905H697.679L706.145 598.609L681.346 612.858ZM683.6 530.916L722.815 553.609L722.695 569.992L706.217 570.136L683.6 530.916ZM683.6 287.276L706.217 248.032L722.743 248.176L722.862 264.583L683.6 287.276ZM697.751 234.311H681.418V205.31L706.289 219.703L697.751 234.311ZM681.777 172.831H698.111L706.217 187.008L681.61 201.4L681.777 172.831ZM706.193 158.775L698.063 144.598L722.695 130.205L722.575 158.727L706.193 158.775ZM698.063 111.879L706.529 97.1266H722.862V126.08L698.063 111.879ZM698.063 83.2379L681.586 83.094L681.442 66.6865L720.68 43.9464L698.063 83.2379ZM681.873 50.519L681.705 28.0907H659.4L670.481 8.73274L651.173 -2.58936L704.395 -33.2693H765.603L734.975 19.791L681.873 50.519ZM700.725 -47.2061H639.253L650.334 -66.612L631.147 -77.8621L650.334 -89.2082L639.253 -108.662H700.725L753.754 -78.03L700.725 -47.2061ZM667.89 -197.632H638.917L653.308 -222.507L668.01 -214.039L667.89 -197.632ZM651.509 -169.47L637.454 -161.195L622.752 -169.686L637.143 -194.585L651.509 -169.47ZM606.419 -197.991V-214.399L620.593 -222.507L634.984 -197.872L606.419 -197.991ZM517.077 -197.991L488.56 -197.848L502.95 -222.483L517.125 -214.375L517.077 -197.991ZM500.72 -169.662L486.017 -161.171L471.963 -169.446L486.353 -194.537L500.72 -169.662ZM455.677 -197.752V-214.111L470.356 -222.579L484.746 -197.704L455.677 -197.752ZM464.168 -183.791L453.039 -164.385L472.227 -153.039L419.005 -122.407H357.821L388.521 -175.515L441.623 -206.291L441.766 -183.911L464.168 -183.791ZM402.912 -199.767L425.529 -238.986H442.006V-222.579L402.912 -199.767ZM417.015 -252.947H400.681L400.513 -281.924L425.385 -267.531L417.015 -252.947ZM417.302 -342.78L441.91 -357.172V-328.675H425.553L417.302 -342.78ZM425.433 -300.37L400.801 -285.978L400.945 -314.499H417.326L425.433 -300.37ZM417.302 -403.852L400.801 -404.02L400.513 -420.403L439.728 -443.096L417.302 -403.852ZM425.745 -390.179H442.102V-361.226L417.302 -375.475L425.745 -390.179ZM311.508 -403.924H283.014L297.405 -428.535L311.604 -420.427L311.508 -403.924ZM295.15 -375.691L281.455 -367.199L266.729 -375.691L281.12 -400.566L295.15 -375.691ZM250.3 -403.948V-420.307L264.45 -428.415L278.841 -403.804L250.3 -403.948ZM161.03 -403.948L144.553 -403.804L121.936 -443.096L161.15 -420.403L161.03 -403.948ZM144.529 -375.475L119.657 -361.082V-390.035H135.991L144.529 -375.475ZM144.529 -342.78L136.446 -328.579H120.089L119.897 -357.148L144.529 -342.78ZM144.529 -314.547H160.886V-286.025L136.254 -300.418L144.529 -314.547ZM161.318 -281.996V-253.019H145.009L136.35 -267.531L161.318 -281.996ZM159.063 -199.79L119.849 -222.483L119.993 -238.89L136.446 -239.01L159.063 -199.79ZM159.063 43.8744L136.47 83.118L119.897 82.974L119.753 66.5666L159.063 43.8744ZM144.841 97.0787H161.174V126.032L136.302 111.639L144.841 97.0787ZM160.886 158.631H144.529L136.35 144.454L161.006 130.061L160.886 158.631ZM136.422 172.687L144.529 186.864L119.921 201.256L120.065 172.759L136.422 172.687ZM144.529 219.559L136.087 234.239H119.729V205.262L144.529 219.559ZM144.529 247.936L161.006 248.08V264.487L121.792 287.18L144.529 247.936ZM160.67 280.655L160.838 303.059H183.168L172.135 322.561L191.322 333.931L138.197 364.491H77.0132L107.617 311.407L160.67 280.655ZM141.867 378.356H203.338L192.258 397.762L211.445 409.012L192.258 420.382L203.338 439.812H141.867L88.9094 408.916H89.0533L141.867 378.356ZM191.37 484.189L172.183 495.487L183.264 514.845H160.934L160.67 537.321L107.617 506.497L77.0132 453.437H138.197L191.37 484.189ZM161.174 553.489V569.872L144.697 570.016L122.08 530.796L161.174 553.489ZM144.553 598.417L119.681 612.81V583.833H136.039L144.553 598.417ZM144.553 631.112L136.446 645.313H120.113L119.897 616.744L144.553 631.112ZM144.553 659.321H160.886V687.843L136.254 673.45L144.553 659.321ZM161.342 691.873V720.849H145.009L136.35 706.361L161.342 691.873ZM159.063 774.102L119.849 751.409L119.993 735.002L136.446 734.858L159.063 774.102ZM159.063 1017.77L136.446 1056.99L119.897 1056.84L119.753 1040.46L159.063 1017.77ZM144.865 1070.97H161.198V1099.92L136.326 1085.53L144.865 1070.97ZM136.446 1146.53L144.553 1160.71L119.945 1175.1V1146.6L136.446 1146.53ZM136.446 1118.35L161.102 1103.95V1132.47H144.745L136.446 1118.35ZM144.673 1221.8H161.15V1238.21L121.936 1260.9L144.673 1221.8ZM136.158 1208.08H119.825V1179.08L144.697 1193.47L136.158 1208.08ZM250.396 1221.88H278.913L264.522 1246.49L250.348 1238.36L250.396 1221.88ZM266.753 1193.64L280.472 1185.15L295.198 1193.64L281.12 1218.52L266.753 1193.64ZM311.58 1221.88V1238.24L297.381 1246.37L282.99 1221.76L311.58 1221.88ZM400.849 1221.88H417.326L439.92 1261.1L400.513 1238.33L400.849 1221.88ZM417.302 1193.31L442.174 1178.91V1207.92H425.841L417.302 1193.31ZM417.302 1160.61L425.433 1146.44H441.766L441.886 1174.93L417.302 1160.61ZM417.302 1132.43H400.921L400.777 1103.91L425.409 1118.3L417.302 1132.43ZM400.513 1099.88V1070.97H416.847L425.313 1085.68L400.513 1099.88ZM402.912 1017.67L442.126 1040.36V1056.75L425.649 1056.89L402.912 1017.67ZM441.838 1001.77L441.694 1024.17L388.521 993.467L357.917 940.407H419.101L472.322 971.063L453.135 982.361L464.192 1001.74L441.838 1001.77ZM455.677 1015.8H484.65L470.26 1040.67L455.677 1032.04V1015.8ZM472.035 987.614L486.089 979.363L500.768 987.854L486.377 1012.73L472.035 987.614ZM517.173 1016.14V1032.52L502.998 1040.65L488.608 1016.04L517.173 1016.14ZM606.515 1016.14L635.032 1016.02L620.641 1040.65L606.467 1032.52L606.515 1016.14ZM622.848 987.83L637.55 979.339L651.605 987.614L637.215 1012.73L622.848 987.83ZM667.914 1015.8V1032.13L653.236 1040.6L638.845 1015.73L667.914 1015.8ZM659.424 1001.89L670.481 982.481L651.293 971.183L704.515 940.527H765.722L735.094 993.611L681.993 1024.41L681.825 1002.01L659.424 1001.89ZM720.68 1017.84L698.087 1057.06L681.61 1056.91L681.466 1040.53L720.68 1017.84ZM706.577 1070.97H722.934V1099.95L698.063 1085.56L706.577 1070.97ZM698.183 1146.58L706.289 1160.76L681.657 1175.15V1146.65L698.183 1146.58ZM698.183 1118.39L722.815 1104L722.695 1132.52H706.313L698.183 1118.39ZM706.361 1221.83L722.839 1221.97L722.982 1238.38L683.768 1261.07L706.361 1221.83ZM697.919 1208.08H681.562V1179.08L706.433 1193.47L697.919 1208.08ZM726.148 1101.77L751.212 1087.38L759.487 1101.43L751.02 1116.12L726.148 1101.77ZM775.364 1101.77L797.981 1062.48V1107.77L783.591 1115.9L775.364 1101.77ZM798.293 1034.29L767.473 1087.45L756.177 1068.26L736.821 1079.34V1057.03L714.42 1056.87L745.216 1003.76L798.149 973.054L798.293 1034.29ZM798.077 940.743V957.15L758.911 979.818L781.528 940.599L798.077 940.743ZM781.744 912.365L773.613 926.758H728.307L767.473 903.946L781.744 912.365ZM767.473 887.898L728.235 865.206H773.541L781.648 879.598L767.473 887.898ZM798.005 851.149L781.552 851.293L758.935 812.074L798.077 834.766L798.005 851.149ZM798.173 818.886L745.24 788.182L714.396 735.146L736.821 734.978V712.67L756.177 723.752L767.497 704.442L798.173 757.67V818.886ZM726.076 690.073L750.948 675.681L759.439 690.385L751.188 704.466L726.076 690.073ZM775.316 690.073L783.591 675.945L797.981 684.053V729.413L775.316 690.073ZM826.331 834.814L811.94 826.706V781.418L834.629 820.709L826.331 834.814ZM873.316 826.682L858.925 834.814L850.627 820.685L873.22 781.394L873.316 826.682ZM873.316 753.928L842.664 807.108L812.012 754.072V692.616L831.391 703.698L842.64 684.388L853.865 703.698L873.316 692.616V753.928ZM812.324 676.496V659.537H841.105L826.571 684.58L812.324 676.496ZM873.004 659.561V676.52L858.877 684.604L844.319 659.561H873.004ZM856.671 631.232L842.688 655.987L828.537 631.232L842.592 622.98L856.671 631.232ZM859.069 545.477L873.268 553.585V569.92L844.775 570.088L859.069 545.477ZM842.736 573.302L856.791 598.177L843.096 606.669L828.393 598.177L842.736 573.302ZM826.139 545.453L840.529 570.04L812.036 569.92V553.585L826.139 545.453ZM798.125 583.833L820.527 583.977L809.374 603.431L828.729 614.657L809.542 625.955L820.623 645.313H798.293L798.149 667.741L778.698 656.587L767.473 675.921L756.177 656.731L736.797 667.813V645.481L714.396 645.337L725.549 625.883L706.193 614.657L725.381 603.359L714.3 583.953H736.63L736.773 561.524L756.225 572.679L767.449 553.321L778.746 572.511L798.125 561.428V583.833ZM797.885 529.189V545.597L783.711 553.729L769.32 529.093L797.885 529.189ZM781.528 500.86L767.137 525.735L752.747 500.644L766.802 492.369L781.528 500.86ZM767.473 476.081L728.259 453.389H773.565L781.672 467.781L767.473 476.081ZM798.005 439.428H781.048L772.966 425.252L798.005 410.739V439.428ZM801.843 408.844L826.355 394.643L834.629 408.916L826.403 423.309L801.651 409.156L801.939 409.012L801.843 408.844ZM798.005 378.404V407.189L772.966 392.653L781.048 378.5L798.005 378.404ZM781.672 350.075L773.565 364.467H728.259L767.473 341.751L781.672 350.075ZM766.898 325.584L752.843 317.332L767.233 292.217L781.624 317.092L766.898 325.584ZM797.933 288.979L769.416 289.099L783.807 264.463L797.981 272.571L797.933 288.979ZM826.187 272.571L812.012 264.439V248.104L840.506 247.984L826.187 272.571ZM873.22 248.104V264.439L859.021 272.595L844.631 247.984L873.22 248.104ZM856.839 219.847L842.784 244.722L828.393 219.847L842.088 211.355L856.839 219.847ZM842.688 195.068L828.537 186.816L842.688 162.061L856.743 186.816L842.688 195.068ZM812.228 158.463V141.504L826.379 133.444L840.913 158.463H812.228ZM873.076 158.463H844.295L858.854 133.444L872.98 141.504L873.076 158.463ZM858.997 -16.7899L873.388 -8.68217V36.6542L850.771 -2.68529L858.997 -16.7899ZM811.964 -8.68217L826.355 -16.7899L834.653 -2.7093L812.012 36.6302L811.964 -8.68217ZM811.964 64.1199L842.64 11.0595L873.172 64.1199V125.576L853.817 114.374L842.592 133.684L831.344 114.374L811.868 125.48L811.964 64.1199ZM820.527 172.831L809.47 192.213L828.657 203.511L809.422 214.617L820.575 234.047L798.173 234.191V256.524L778.818 245.441L767.497 264.631L756.273 245.273L736.821 256.428L736.677 234.023H714.348L725.429 214.617L706.121 203.343L725.477 192.117L714.3 172.663L736.701 172.519V150.187L756.081 161.269L767.377 142.079L778.602 161.437L798.053 150.259L798.197 172.663L820.527 172.831ZM726.028 127.975L751.092 113.582L759.367 127.639L750.9 142.343L726.028 127.975ZM775.244 127.975L797.861 88.6831V133.971L783.471 142.103L775.244 127.975ZM798.173 60.4978L767.473 113.558L756.177 94.3681L736.821 105.45V83.142L714.42 82.95L745.216 29.8417L798.149 -0.838283L798.173 60.4978ZM797.957 -33.0535V-16.646L758.911 5.92621L781.528 -33.2934L797.957 -33.0535ZM781.6 -61.4067L773.493 -47.1341H728.163L767.473 -69.9222L781.6 -61.4067ZM767.473 -85.9939L728.235 -108.686H773.565L781.672 -94.2935L767.473 -85.9939ZM798.005 -122.719L781.552 -122.575L758.935 -161.794L798.077 -139.126L798.005 -122.719ZM798.173 -155.03L745.24 -185.71L714.42 -238.746L736.821 -238.914V-261.222L756.177 -250.14L767.473 -269.33L798.149 -216.102L798.173 -155.03ZM726.1 -283.819L750.972 -298.211L759.439 -283.531L751.188 -269.474L726.1 -283.819ZM775.316 -283.819L783.567 -297.947L797.957 -289.816V-244.503L775.316 -283.819ZM826.331 -139.078L811.94 -147.21V-192.45L834.629 -153.159L826.331 -139.078ZM873.316 -147.21L858.925 -139.078L850.603 -153.207L873.22 -192.498L873.316 -147.21ZM873.316 -219.964L842.664 -166.784L812.012 -219.796V-281.276L831.463 -270.194L842.688 -289.384L853.913 -270.194L873.364 -281.276L873.316 -219.964ZM812.324 -297.396V-314.307H841.105L826.571 -289.264L812.324 -297.396ZM873.004 -314.307V-297.348L858.877 -289.264L844.319 -314.307H873.004ZM856.671 -342.66L842.688 -317.905L828.537 -342.66L842.592 -350.888L856.671 -342.66ZM859.069 -428.415L873.268 -420.307V-403.924H844.775L859.069 -428.415ZM842.76 -400.566L856.815 -375.691L843.12 -367.199L828.417 -375.691L842.76 -400.566ZM826.139 -428.415L840.529 -403.804L812.06 -403.948V-420.307L826.139 -428.415ZM798.173 -390.155L820.575 -390.011L809.422 -370.677L828.777 -359.427L809.59 -348.129L820.67 -328.771H798.341L798.197 -306.367L778.746 -317.521L767.473 -297.995L756.177 -317.185L736.797 -306.103V-328.435L714.372 -328.579L725.549 -348.009L706.193 -359.259L725.381 -370.533L714.3 -389.867H736.63L736.773 -412.296L756.225 -401.141L767.473 -420.691L778.77 -401.501L798.149 -412.584L798.173 -390.155ZM736.438 -428.799V-445.135H765.435L751.044 -420.259L736.438 -428.799ZM797.933 -444.775V-428.391L783.759 -420.259L769.368 -444.895L797.933 -444.775ZM781.6 -473.104L767.21 -448.229L752.819 -473.344L766.874 -481.596L781.6 -473.104ZM798.005 -563.081V-534.296H781.048L772.99 -548.449L798.005 -563.081ZM773.565 -520.383L781.672 -505.991L767.473 -497.811L728.259 -520.503L773.565 -520.383ZM753.083 -489.727L733.895 -478.405L744.976 -459.047H722.647L722.503 -436.643L669.354 -467.371L638.75 -520.431H699.933L753.083 -489.727ZM636.831 -556.892L676.045 -534.2H630.763L622.632 -548.593L636.831 -556.892ZM606.395 -520.191H622.872L645.489 -481.02L606.347 -503.712L606.395 -520.191ZM606.251 -487.88L659.184 -457.2L689.98 -404.092L667.579 -403.9V-381.592L648.223 -392.674L636.927 -373.484L606.203 -426.592L606.251 -487.88ZM678.348 -359.283L653.452 -344.891L644.962 -359.571L653.236 -373.628L678.348 -359.283ZM629.084 -359.091L620.809 -344.939L606.419 -353.071V-398.359L629.084 -359.091ZM606.419 -314.786V-337.119L625.966 -326.037L637.239 -345.227L648.487 -325.869L667.842 -337.095L667.986 -314.667H690.316L679.235 -295.261L698.422 -283.963L679.067 -272.736L690.22 -253.283L667.819 -253.139V-230.806L648.463 -241.889L637.167 -222.699L625.966 -241.985L606.539 -230.806L606.395 -253.235H584.065L595.146 -272.617L575.959 -283.915L595.314 -295.165L584.161 -314.595L606.419 -314.786ZM578.117 -503.856L592.508 -495.748V-450.412L569.891 -489.727L578.117 -503.856ZM561.832 -475.958L592.388 -422.922V-361.442L572.961 -372.548L561.712 -353.358L550.487 -372.548L531.084 -361.442V-422.922L561.688 -475.958H561.832ZM531.084 -495.748L545.475 -503.856L553.749 -489.727L531.132 -450.412L531.084 -495.748ZM539.622 -314.619L528.47 -295.165L547.825 -283.939L528.638 -272.64L539.622 -253.139H517.293L517.149 -230.734L497.722 -241.913L486.473 -222.555L475.177 -241.745L455.677 -230.782V-253.115L433.252 -253.259L444.429 -272.712L425.073 -283.939L444.261 -295.237L433.18 -314.643H455.509L455.677 -337.095L475.105 -325.917L486.329 -345.275L497.65 -326.085L517.053 -337.095V-314.763L539.622 -314.619ZM445.196 -359.283L470.308 -373.676L478.558 -359.619L470.068 -344.939L445.196 -359.283ZM494.484 -359.091L517.101 -398.359V-353.071L502.711 -344.939L494.484 -359.091ZM517.341 -426.592L486.689 -373.388L475.368 -392.722L456.013 -381.64V-403.948L433.612 -404.116L464.408 -457.248L517.341 -487.88V-426.592ZM517.125 -520.143V-503.736L478.007 -481.02L500.648 -520.239L517.125 -520.143ZM486.569 -556.844L500.768 -548.497L492.685 -534.104H447.379L486.569 -556.844ZM423.538 -520.383H484.746L454.142 -467.395L401.017 -436.571L400.849 -458.999H378.544L389.625 -478.357L370.437 -489.679L423.538 -520.383ZM395.285 -520.383L356.071 -497.811L341.872 -506.159L350.003 -520.551L395.285 -520.383ZM325.515 -563.081L350.554 -548.545L342.471 -534.392H325.515V-563.081ZM250.228 -520.479V-542.884L269.679 -531.801L280.904 -550.991L292.08 -531.801L311.508 -542.86V-520.455H333.909L322.804 -501.025L342.112 -489.799L322.804 -478.549L333.909 -459.095H311.484V-436.691L292.08 -447.749L280.904 -428.559L269.679 -447.749L250.228 -436.667V-459.071H227.802L238.883 -478.501L219.696 -489.751L238.883 -500.977L227.826 -520.407L250.228 -520.479ZM236.269 -563.057V-534.272H219.312L211.229 -548.425L236.269 -563.057ZM211.829 -520.359L219.936 -505.967L205.737 -497.811L166.523 -520.407L211.829 -520.359ZM191.418 -489.727L172.231 -478.405L183.288 -459.023H160.982L160.67 -436.547L107.617 -467.371L77.0132 -520.431H138.197L191.418 -489.727ZM75.1904 -556.892L114.405 -534.2H69.1223L60.9917 -548.593L75.1904 -556.892ZM44.6583 -520.191L61.1356 -520.311L83.7528 -481.02L44.5864 -503.784L44.6583 -520.191ZM44.5144 -487.88L97.4478 -457.176L128.244 -404.068L105.842 -403.9V-381.592L86.3191 -392.674L75.0225 -373.484L44.4425 -426.592L44.5144 -487.88ZM116.587 -359.307L91.7155 -344.915L83.2251 -359.595L91.4757 -373.628L116.587 -359.307ZM67.3475 -359.115L59.0729 -344.987L44.6823 -353.119V-398.407L67.3475 -359.115ZM16.3569 -503.856L30.7474 -495.772V-450.412L8.08228 -489.727L16.3569 -503.856ZM0.0955075 -475.982L30.6275 -422.97V-361.49L11.2482 -372.572L-0.0244141 -353.286L0.0955075 -475.982ZM1.77441 -328.603L16.3329 -353.622L30.4596 -345.562V-328.603H1.77441ZM30.5556 -222.291L16.4288 -214.207L1.77441 -239.25H30.5556V-222.291ZM22.257 -253.283L33.3378 -272.664L14.1503 -283.963L33.5536 -295.189L22.3769 -314.643L44.7783 -314.81V-337.143L64.1576 -326.061L75.4542 -345.251L86.6788 -325.893L106.082 -337.095L106.226 -314.667H128.531L117.499 -295.261L136.686 -283.963L117.499 -272.712L128.675 -253.283L106.274 -253.139V-230.806L86.9187 -241.889L75.5981 -222.699L64.3734 -242.056L44.9462 -230.902L44.5864 -253.139L22.257 -253.283ZM44.7063 -198.111V-214.495L58.881 -222.603L73.2716 -197.991L44.7063 -198.111ZM61.0396 -169.806L75.4302 -194.681L89.8208 -169.566L75.766 -161.315L61.0396 -169.806ZM75.1664 -145.195L114.381 -122.503H69.0983L60.9677 -136.895L75.1664 -145.195ZM44.6583 -108.494H61.6152L69.674 -94.3415L44.6583 -79.8051V-108.494ZM16.3329 -63.6375L8.13025 -78.03L16.3569 -92.1586L41.1087 -78.03L16.3329 -63.6375ZM44.6583 -47.326V-76.111L69.674 -61.5746L61.6152 -47.422L44.6583 -47.326ZM60.9917 -18.9728L69.1223 -33.2454H114.405L75.1904 -10.865L60.9917 -18.9728ZM75.766 5.47044L89.8208 13.7461L75.4302 38.837L61.0396 13.962L75.766 5.47044ZM44.5864 42.2672H73.1037L58.7131 66.8785L44.5384 58.7467L44.5864 42.2672ZM1.79839 83.3099L16.3569 58.267L30.4836 66.3507V83.3099H1.79839ZM30.5796 189.598L16.4528 197.682L1.77441 172.663H30.5556L30.5796 189.598ZM30.7954 339.808L16.4048 347.94L8.13025 333.811L30.6755 294.496L30.7954 339.808ZM22.257 158.751L33.4097 139.297L14.0544 128.047L33.2418 116.772L22.1851 97.3905H44.5144L44.6583 74.9622L64.1096 86.1404L75.3343 66.7825L86.6549 85.9725L106.01 74.8663V97.1986L128.412 97.3665L117.499 116.796L136.686 128.047L117.499 139.321L128.555 158.751H106.25L106.082 181.179L86.6549 170.001L75.4062 189.359L64.1336 170.169L44.7543 181.251V158.918L22.257 158.751ZM116.587 203.391L91.4997 217.784L83.2491 203.727L91.7155 189.071L116.587 203.391ZM67.3475 203.175L44.7063 242.491V197.179L59.0969 189.071L67.3475 203.175ZM44.4425 270.676L75.0944 217.472L86.3191 236.782L105.674 225.7V248.008L128.076 248.176L97.4478 301.284L44.4905 331.964L44.4425 270.676ZM44.6583 364.227V347.844L83.8247 325.152L61.1835 364.371L44.6583 364.227ZM60.9917 392.581L69.1223 378.188H114.405L75.1904 400.88L60.9917 392.581ZM75.1904 417.024L114.405 439.74H69.1223L60.9917 425.347L75.1904 417.024ZM44.6583 453.701L61.1116 453.557L83.7528 492.872L44.5864 470.108L44.6583 453.701ZM44.4905 486.012L97.4478 516.692L128.244 569.824L105.842 569.992V592.3L86.3191 581.218L74.9985 600.408L44.4425 547.3L44.4905 486.012ZM116.587 614.585L91.7395 628.977L83.2491 614.273L91.4757 600.216L116.587 614.585ZM67.3475 614.801L59.0729 628.929L44.6823 620.798V575.509L67.3475 614.801ZM16.3569 470.036L30.7474 478.144V523.48L8.13025 484.141L16.3569 470.036ZM-0.0244141 497.934L30.5316 550.946V612.426L11.2482 601.344L0.0235545 620.534L-0.0244141 497.934ZM1.67847 645.313L16.213 620.27L30.3637 628.354V645.313H1.67847ZM30.4596 751.601L16.3089 759.661L1.77441 734.642H30.5556L30.4596 751.601ZM22.257 720.609L33.3378 701.228L14.1503 689.93L33.5056 678.679L22.3529 659.249L44.7543 659.106V636.773L64.1336 647.855L75.4302 628.665L86.6549 648.023L106.082 636.797L106.226 659.202H128.531L117.499 678.631L136.686 689.93L117.499 701.156L128.651 720.609L106.25 720.753V743.086L86.8707 732.004L75.5741 751.194L64.3495 731.836L44.8982 743.014L44.5864 720.753L22.257 720.609ZM44.6823 775.781V759.373L58.857 751.265L73.2476 775.901L44.6823 775.781ZM61.0396 804.086L75.4302 779.211L89.8208 804.302L75.79 812.578L61.0396 804.086ZM75.1664 828.697L114.381 851.413H69.0983L60.9677 837.021L75.1664 828.697ZM44.6344 865.398H61.5913L69.674 879.551L44.6344 894.087V865.398ZM16.3329 910.087L8.10627 895.694L16.3329 881.565L41.1087 895.862L16.3329 910.087ZM44.6344 926.422V897.637L69.674 912.174L61.5913 926.326L44.6344 926.422ZM60.9917 954.775L69.1223 940.503H114.405L75.1904 963.027L60.9917 954.775ZM75.742 979.243L89.7968 987.494L75.4062 1012.61L61.0156 987.734L75.742 979.243ZM44.7063 1016.02H73.2237L58.8331 1040.63L44.6583 1032.49L44.7063 1016.02ZM16.3329 1032.16L30.4836 1040.22V1057.18H1.77441L16.3329 1032.16ZM-0.0244141 1093.78V1060.78L14.1023 1085.56L-0.0244141 1093.78ZM30.4357 1146.56V1163.51L16.2849 1171.6L1.77441 1146.51L30.4357 1146.56ZM-0.0244141 1171.17L11.2002 1190.48L30.6275 1179.37V1240.85L0.0955075 1293.86L-0.0244141 1171.17ZM30.6515 1313.65L16.2609 1321.78L7.98634 1307.66L30.6275 1268.39L30.6515 1313.65ZM22.281 1132.59L33.5536 1113.14L14.0784 1101.91L33.2658 1090.62L22.281 1071.23H44.6104L44.7543 1048.83L64.1816 1060.03L75.4062 1040.67L86.7268 1059.86L106.082 1048.78V1071.11L128.507 1071.26L117.499 1090.64L136.686 1101.89L117.499 1113.16L128.579 1132.59H106.25L106.106 1155.02L86.6549 1143.84L75.4302 1163.2L64.1336 1144.01L44.7543 1155.09V1132.76L22.281 1132.59ZM116.611 1177.24L91.4997 1191.63L83.2491 1177.57L91.7395 1162.89L116.611 1177.24ZM67.3715 1177.02L44.7543 1216.33V1171.02L59.1449 1162.91L67.3715 1177.02ZM44.4425 1244.54L75.0944 1191.36L86.415 1210.55L105.77 1199.47V1221.78L128.172 1221.95L97.4478 1275.18L44.4905 1305.83L44.4425 1244.54ZM44.6583 1338.1V1321.71L83.8247 1299.04L61.1835 1338.26L44.6583 1338.1ZM75.1904 1374.8L60.9917 1366.45L69.1223 1352.18H114.405L75.1904 1374.8ZM138.197 1338.36H77.0132L107.617 1285.28L160.67 1254.57L160.838 1276.98H183.144L172.135 1296.45L191.322 1307.8L138.197 1338.36ZM166.523 1338.36L205.737 1315.64L219.936 1323.99L211.805 1338.38L166.523 1338.36ZM236.245 1381.06L211.229 1366.5L219.288 1352.37H236.245V1381.06ZM311.58 1338.43V1360.84L292.128 1349.75L280.976 1368.94L269.727 1349.75L250.3 1360.84V1338.41H227.826L238.907 1318.95L219.72 1307.7L238.907 1296.48L227.826 1277H250.228V1254.57L269.655 1265.65L280.832 1246.46L292.056 1265.65L311.508 1254.57V1277H333.933L322.9 1296.45L342.208 1307.68L322.9 1318.93L334.005 1338.38L311.58 1338.43ZM325.515 1381.03V1352.25H342.471L350.554 1366.38L325.515 1381.03ZM350.003 1338.34L341.872 1323.94L356.071 1315.6L395.285 1338.29L350.003 1338.34ZM370.341 1307.7L389.529 1296.36L378.448 1277.02H400.777L400.945 1254.62L454.046 1285.42L484.65 1338.5H423.442L370.341 1307.7ZM486.593 1374.87L447.379 1352.18H492.685L500.792 1366.57L486.593 1374.87ZM517.149 1338.17L500.624 1338.34L478.007 1299.12L517.197 1321.78L517.149 1338.17ZM517.317 1305.9L464.408 1275.22L433.588 1222.09L455.989 1221.92V1199.62L475.344 1210.7L486.665 1191.51L517.293 1244.71L517.317 1305.9ZM445.22 1177.24L470.092 1162.84L478.582 1177.55L470.332 1191.6L445.22 1177.24ZM494.508 1177.04L502.783 1162.94L517.173 1171.05V1216.36L494.508 1177.04ZM517.125 1132.76V1155.09L497.77 1144.01L486.473 1163.2L475.225 1143.84L455.797 1155L455.653 1132.59H433.324L444.405 1113.19L425.217 1101.89L444.573 1090.66L433.42 1071.23L455.821 1071.07V1048.73L475.177 1059.82L486.473 1040.63L497.698 1059.98L517.149 1048.81L517.293 1071.23H539.622L528.542 1090.64L547.729 1101.89L528.35 1113.12L539.55 1132.59L517.125 1132.76ZM545.427 1321.81L531.036 1313.68V1268.39L553.653 1307.66L545.427 1321.81ZM561.688 1293.89L531.18 1240.87V1179.39L550.583 1190.48L561.808 1171.29L573.057 1190.48L592.484 1179.39V1240.87L561.952 1293.91L561.688 1293.89ZM592.388 1313.68L577.997 1321.81L569.723 1307.68L592.388 1268.39V1313.68ZM583.945 1132.62L595.098 1113.19L575.743 1101.94L594.93 1090.64L583.849 1071.26H606.179L606.323 1048.83L625.75 1060.03L636.999 1040.67L648.295 1059.86L667.651 1048.78V1071.11L690.052 1071.26L678.899 1090.69L698.255 1101.91L679.067 1113.21L690.124 1132.62H667.819L667.675 1155.05L648.223 1143.87L636.999 1163.23L625.702 1144.04L606.323 1155.12V1132.79L583.945 1132.62ZM678.276 1177.24L653.164 1191.63L644.89 1177.57L653.38 1162.87L678.276 1177.24ZM629.012 1177.04L606.395 1216.33V1171.05L620.785 1162.91L629.012 1177.04ZM606.131 1244.54L636.783 1191.34L648.103 1210.65L667.459 1199.57V1221.88L689.86 1222.04L659.064 1275.18L606.107 1305.83L606.131 1244.54ZM606.347 1338.1V1321.71L645.513 1299.02L622.896 1338.26L606.347 1338.1ZM636.879 1374.8L622.68 1366.45L630.811 1352.18H676.093L636.879 1374.8ZM699.886 1338.36H638.678L669.306 1285.25L722.407 1254.48L722.551 1276.86H744.88L733.895 1296.45L753.083 1307.73L699.886 1338.36ZM728.211 1338.36L767.473 1315.64L781.672 1323.99L773.565 1338.38L728.211 1338.36ZM797.957 1381.06L772.99 1366.5L781.072 1352.37H798.029L797.957 1381.06Z" stroke="#DEE3F4"/>
</svg>
